# xmcd
#
# Track frame offsets: 
#        150
#        17381
#        35476
#        57288
#        74082
#
# Disc length: 1201 seconds
#
# Revision: 0
# Processed by: cddbd v1.5.1PL0 Copyright (c) Steve Scherf et al.
# Submitted via: ExactAudioCopy v0.90b3
#
DISCID=3e04af05
DTITLE=Nneka - uncomfortable truth
DYEAR=2005
DGENRE=Schnulzen
TTITLE0=the uncomfortable truth
TTITLE1=stand strong
TTITLE2=confession
TTITLE3=chages
TTITLE4=god of mercy
EXTD=
EXTT0=
EXTT1=
EXTT2=
EXTT3=
EXTT4=
PLAYORDER=
